<svg width="22" height="17" viewBox="0 0 22 17" fill="none" xmlns="http://www.w3.org/2000/svg">
<g clip-path="url(#clip0_1610_27757)">
<path d="M4 13.1953V15.9993" stroke="#475569" stroke-width="2" stroke-linecap="round" stroke-linejoin="round"/>
<path d="M18 13.1953V15.9993" stroke="#475569" stroke-width="2" stroke-linecap="round" stroke-linejoin="round"/>
<path d="M19 6V3C19 2.46957 18.7893 1.96086 18.4142 1.58579C18.0391 1.21071 17.5304 1 17 1H5C4.46957 1 3.96086 1.21071 3.58579 1.58579C3.21071 1.96086 3 2.46957 3 3V6" stroke="#475569" stroke-width="2" stroke-linecap="round" stroke-linejoin="round"/>
<path d="M15 10H7C6.46957 10 5.96086 9.78929 5.58579 9.41421C5.21071 9.03914 5 8.53043 5 8C5 7.46957 4.78929 6.96086 4.41421 6.58579C4.03914 6.21071 3.53043 6 3 6C2.46957 6 1.96086 6.21071 1.58579 6.58579C1.21071 6.96086 1 7.46957 1 8V8C1 9.5913 1.63214 11.1174 2.75736 12.2426C3.88258 13.3679 5.4087 14 7 14H15C16.5913 14 18.1174 13.3679 19.2426 12.2426C20.3679 11.1174 21 9.5913 21 8C21 7.46957 20.7893 6.96086 20.4142 6.58579C20.0391 6.21071 19.5304 6 19 6C18.4696 6 17.9609 6.21071 17.5858 6.58579C17.2107 6.96086 17 7.46957 17 8C17 8.53043 16.7893 9.03914 16.4142 9.41421C16.0391 9.78929 15.5304 10 15 10V10Z" stroke="#475569" stroke-width="2" stroke-linecap="round" stroke-linejoin="round"/>
</g>
<defs>
<clipPath id="clip0_1610_27757">
<rect width="22" height="17" fill="white"/>
</clipPath>
</defs>
</svg>
