<svg width="22" height="20" viewBox="0 0 22 20" fill="none" xmlns="http://www.w3.org/2000/svg">
<g clip-path="url(#clip0_1610_27811)">
<path d="M17.0009 7.34301V15C17.0009 17.2091 15.21 19 13.0009 19H9.00086V19C6.79172 19 5.00086 17.2091 5.00086 15V7.34301L3.54686 7.84301V7.84301C3.07264 8.00541 2.55145 7.79163 2.32786 7.34301L1.10685 4.9H1.10686C0.860853 4.40553 1.06228 3.80526 1.55675 3.55925C1.56308 3.5561 1.56945 3.55302 1.57585 3.55L6.19285 1.38V1.38C6.72534 1.1297 7.30647 0.999948 7.89485 1H14.1079V1C14.6956 1.00024 15.276 1.12998 15.8079 1.38L20.4249 3.55V3.55C20.9246 3.785 21.1393 4.38067 20.9043 4.88046C20.9012 4.88701 20.8981 4.89352 20.8949 4.9L19.6739 7.344V7.344C19.4503 7.79263 18.9291 8.0064 18.4549 7.844L17.0009 7.34301Z" stroke="#475569" stroke-width="2" stroke-linecap="round" stroke-linejoin="round"/>
<path d="M14.5 1C14.5 2.933 12.933 4.5 11 4.5V4.5C9.067 4.5 7.5 2.933 7.5 1V1" stroke="#475569" stroke-width="2" stroke-linecap="round" stroke-linejoin="round"/>
</g>
<defs>
<clipPath id="clip0_1610_27811">
<rect width="22" height="20" fill="white"/>
</clipPath>
</defs>
</svg>
