<svg width="24" height="24" viewBox="0 0 24 24" fill="none" xmlns="http://www.w3.org/2000/svg">
<g clip-path="url(#clip0_3988_103220)">
<path d="M17 20.5703C16.172 19.5703 15.086 19.0703 14 19.0703C15.086 19.0703 16.172 18.5703 17 17.5703" stroke="#475569" stroke-width="1.5" stroke-linecap="round" stroke-linejoin="round"/>
<path d="M10 15.9346V22.0006H14V15.9336" stroke="#475569" stroke-width="1.5" stroke-linecap="round" stroke-linejoin="round"/>
<path d="M14 19.0703H10" stroke="#475569" stroke-width="1.5" stroke-linecap="round" stroke-linejoin="round"/>
<path d="M19.4411 10.4568C19.6191 10.3418 19.7901 10.2108 19.9461 10.0548L22.0001 7.99981C21.1541 7.15381 20.0211 6.76781 18.9141 6.84381C18.9891 5.73681 18.6041 4.60381 17.7581 3.75781L15.7041 5.81181C14.7251 6.78981 14.5751 8.26981 15.2301 9.41581" stroke="#475569" stroke-width="1.5" stroke-linecap="round" stroke-linejoin="round"/>
<path d="M19.5903 12.3359L14.5983 15.6639C14.2693 15.8829 13.8833 15.9999 13.4883 15.9999H10.5083C10.1133 15.9999 9.72729 15.8829 9.39929 15.6639L4.40729 12.3359C3.91129 12.0049 3.82129 11.3229 4.19329 10.8559C4.98429 9.86091 6.20429 9.21991 7.57629 9.21991C7.99529 9.21991 8.40429 9.30391 8.79229 9.41891C9.58829 8.54891 10.7313 8.00391 11.9983 8.00391C13.2653 8.00391 14.4083 8.54891 15.2153 9.41891C15.6033 9.30391 16.0013 9.21991 16.4313 9.21991C17.7943 9.21991 19.0133 9.86091 19.8053 10.8559C20.1753 11.3229 20.0863 12.0049 19.5903 12.3359V12.3359Z" stroke="#475569" stroke-width="1.5" stroke-linecap="round" stroke-linejoin="round"/>
<path d="M13.7997 8.39675C14.5327 7.84975 15.0137 6.98375 15.0137 5.99875V3.09375C13.8167 3.09375 12.7437 3.62175 12.0137 4.45875C11.2837 3.62275 10.2107 3.09375 9.01367 3.09375V5.99875C9.01367 6.97775 9.48967 7.83875 10.2157 8.38675" stroke="#475569" stroke-width="1.5" stroke-linecap="round" stroke-linejoin="round"/>
<path d="M4.559 10.4568C4.381 10.3418 4.21 10.2108 4.054 10.0548L2 7.99981C2.846 7.15381 3.979 6.76781 5.086 6.84381C5.011 5.73681 5.396 4.60381 6.242 3.75781L8.296 5.81181C9.275 6.78981 9.425 8.26981 8.77 9.41581" stroke="#475569" stroke-width="1.5" stroke-linecap="round" stroke-linejoin="round"/>
</g>
<defs>
<clipPath id="clip0_3988_103220">
<rect width="24" height="24" fill="white"/>
</clipPath>
</defs>
</svg>
