<svg width="20" height="20" viewBox="0 0 20 20" fill="none" xmlns="http://www.w3.org/2000/svg">
<path d="M8.29409 0.0742188H3.89481C3.12509 0.0761725 2.50095 0.716946 2.5 1.50718V18.566C2.50095 19.3562 3.12509 19.997 3.89481 19.999H8.29409C9.06476 19.999 9.68985 19.3572 9.68985 18.566V1.50718C9.68985 0.715971 9.06476 0.0742188 8.29409 0.0742188ZM8.42063 18.5679L8.42159 18.5688C8.42159 18.603 8.40827 18.6362 8.38448 18.6607C8.3607 18.6851 8.32835 18.6988 8.2941 18.6988H3.89481C3.82535 18.6978 3.76922 18.6401 3.76827 18.5688V16.5889H5.51415C5.86427 16.5889 6.14781 16.2978 6.14781 15.9373C6.14781 15.5779 5.86427 15.2868 5.51415 15.2868H3.76827V12.6269H5.51415C5.86427 12.6269 6.14781 12.3358 6.14781 11.9754C6.14781 11.6159 5.86427 11.3248 5.51415 11.3248H3.76827V8.66994H5.51415C5.86427 8.66994 6.14781 8.37884 6.14781 8.01938C6.14781 7.65895 5.86427 7.36785 5.51415 7.36785H3.76827V4.71397H5.51415C5.86427 4.71397 6.14781 4.4219 6.14781 4.06244C6.14781 3.70298 5.86427 3.41091 5.51415 3.41091H3.76827V1.50714C3.76922 1.43583 3.82535 1.3782 3.89481 1.37722H8.2941C8.32835 1.37722 8.3607 1.3909 8.38448 1.41532C8.40827 1.43974 8.42159 1.47295 8.42159 1.50714L8.42063 18.5679Z" fill="#475569"/>
<path d="M15.6032 0H13.2798C12.2285 0 11.377 0.874233 11.377 1.95359V16.7461C11.3751 17.1114 11.5111 17.4621 11.7547 17.7278L13.4245 19.5515C13.688 19.8377 14.0553 19.9998 14.4387 19.9998C14.8231 19.9998 15.1903 19.8377 15.4539 19.5515L17.1236 17.7278C17.3663 17.4621 17.5014 17.1104 17.5014 16.7461V1.95359C17.5004 0.877158 16.6517 0.00390093 15.6032 0ZM12.6451 4.47481H13.8097V14.4459L12.648 14.9177L12.6451 4.47481ZM15.076 4.47481H16.2377V14.9178L15.0779 14.446L15.076 4.47481ZM13.2797 1.30206H15.6041H15.6031C15.7715 1.30206 15.9333 1.37141 16.0522 1.49351C16.1711 1.61561 16.2378 1.78068 16.2378 1.95357V3.17261H12.6452V1.95357C12.6452 1.78068 12.7118 1.61559 12.8307 1.49351C12.9496 1.37141 13.1113 1.30206 13.2797 1.30206ZM16.2025 16.837L14.5328 18.6607C14.5118 18.6919 14.4776 18.7115 14.4405 18.7115C14.4034 18.7115 14.3682 18.6919 14.3472 18.6607L12.6775 16.837H12.6784C12.6565 16.8126 12.6442 16.7794 12.6451 16.7462V16.3164L14.3929 15.6082C14.4233 15.5945 14.4566 15.5945 14.4871 15.6082L16.2377 16.3164V16.7462C16.2377 16.7803 16.2244 16.8126 16.2025 16.837Z" fill="#475569"/>
</svg>
