<svg width="20" height="19" viewBox="0 0 20 19" fill="none" xmlns="http://www.w3.org/2000/svg">
<path d="M16.3639 2.31802C19.8787 4.07538 19.8787 6.92462 16.3639 8.68198C12.8492 10.4393 7.15074 10.4393 3.63604 8.68198C0.12132 6.92462 0.12132 4.07538 3.63604 2.31802C7.15076 0.56066 12.8492 0.56066 16.3639 2.31802" stroke="#475569" stroke-width="2" stroke-linecap="round" stroke-linejoin="round"/>
<path d="M18.5 11.5C16.689 12.895 13.576 13.827 10 13.827C6.424 13.827 3.311 12.895 1.5 11.5" stroke="#475569" stroke-width="2" stroke-linecap="round" stroke-linejoin="round"/>
<path d="M18.5 15.6719C16.689 17.0669 13.576 17.9989 10 17.9989C6.424 17.9989 3.311 17.0669 1.5 15.6719" stroke="#475569" stroke-width="2" stroke-linecap="round" stroke-linejoin="round"/>
<path d="M6.34766 5C7.12566 4.401 8.46366 4 9.99966 4C11.5357 4 12.8737 4.401 13.6517 5" stroke="#475569" stroke-width="2" stroke-linecap="round" stroke-linejoin="round"/>
</svg>
