<svg width="20" height="20" viewBox="0 0 20 20" fill="none" xmlns="http://www.w3.org/2000/svg">
<g clip-path="url(#clip0_3898_58611)">
<path d="M16.3633 10.9103V7.05078" stroke="#475569" stroke-width="1.36364" stroke-linecap="round" stroke-linejoin="round"/>
<path d="M18.1813 12.7283C18.1813 11.7242 17.3673 10.9102 16.3631 10.9102C15.3589 10.9102 14.5449 11.7242 14.5449 12.7283V17.2738C14.5449 18.2779 15.3589 19.092 16.3631 19.092C17.3673 19.092 18.1813 18.2779 18.1813 17.2738V12.7283Z" stroke="#475569" stroke-width="1.36364" stroke-linecap="round" stroke-linejoin="round"/>
<path d="M15.4915 2.06757L14.4145 4.22012C14.3291 4.3908 14.2995 4.58402 14.3301 4.77241C14.3606 4.9608 14.4497 5.1348 14.5846 5.26975L16.3627 7.04784L18.1429 5.26762C18.2779 5.13267 18.367 4.95867 18.3975 4.77028C18.428 4.58189 18.3985 4.38866 18.3131 4.21799L17.2372 2.06757C17.1994 1.9921 17.1414 1.92862 17.0696 1.88426C16.9978 1.8399 16.915 1.81641 16.8307 1.81641H15.898C15.8136 1.81641 15.7309 1.8399 15.6591 1.88426C15.5873 1.92862 15.5293 1.99209 15.4915 2.06757V2.06757Z" stroke="#475569" stroke-width="1.36364" stroke-linecap="round" stroke-linejoin="round"/>
<path d="M3.63548 1.81641L0.908203 4.54368V6.36186H9.99911C10.2402 6.36186 10.4714 6.26608 10.6419 6.09559C10.8124 5.92511 10.9082 5.69388 10.9082 5.45277V2.7255C10.9082 2.48439 10.8124 2.25316 10.6419 2.08267C10.4714 1.91219 10.2402 1.81641 9.99911 1.81641H3.63548Z" stroke="#475569" stroke-width="1.36364" stroke-linecap="round" stroke-linejoin="round"/>
<path d="M4.54492 6.36328H8.18129V17.2724C8.18129 17.7546 7.98973 18.217 7.64875 18.558C7.30778 18.899 6.84532 19.0906 6.3631 19.0906C5.88089 19.0906 5.41843 18.899 5.07745 18.558C4.73648 18.217 4.54492 17.7546 4.54492 17.2724V6.36328Z" stroke="#475569" stroke-width="1.36364" stroke-linecap="round" stroke-linejoin="round"/>
</g>
<defs>
<clipPath id="clip0_3898_58611">
<rect width="20" height="20" fill="white"/>
</clipPath>
</defs>
</svg>
