<svg width="24" height="18" viewBox="0 0 24 18" fill="none" xmlns="http://www.w3.org/2000/svg">
<g clip-path="url(#clip0_1610_27698)">
<path d="M22.5 14.25V14.988C22.5028 15.4801 22.323 15.9557 21.9953 16.3228C21.6676 16.69 21.2154 16.9225 20.7262 16.9754C20.5578 16.9919 20.4096 17 20.3 17H3.70002C3.54882 16.9977 3.39785 16.9873 3.24779 16.9687C2.76409 16.909 2.31907 16.674 1.99697 16.3083C1.67488 15.9425 1.49807 15.4714 1.50002 14.984V14.25C1.50002 14.1837 1.52636 14.1201 1.57324 14.0732C1.62012 14.0263 1.68371 14 1.75002 14H22.25C22.3163 14 22.3799 14.0263 22.4268 14.0732C22.4737 14.1201 22.5 14.1837 22.5 14.25Z" stroke="#475569" stroke-width="2" stroke-linecap="round" stroke-linejoin="round"/>
<path d="M4.5 1H19.5C19.7652 1 20.0196 1.10536 20.2071 1.29289C20.3946 1.48043 20.5 1.73478 20.5 2V14H3.5V2C3.5 1.73478 3.60536 1.48043 3.79289 1.29289C3.98043 1.10536 4.23478 1 4.5 1V1Z" stroke="#475569" stroke-width="2" stroke-linecap="round" stroke-linejoin="round"/>
</g>
<defs>
<clipPath id="clip0_1610_27698">
<rect width="24" height="18" fill="white"/>
</clipPath>
</defs>
</svg>
