<svg width="18" height="20" viewBox="0 0 18 20" fill="none" xmlns="http://www.w3.org/2000/svg">
<g clip-path="url(#clip0_1610_27783)">
<path d="M2 8.38281H6V8.38281C6.55229 8.38281 7 8.83053 7 9.38281V16.9998C7 18.1044 6.10457 18.9998 5 18.9998H3V18.9998C1.89543 18.9998 1 18.1044 1 16.9998V9.38281V9.38281C1 8.83053 1.44772 8.38281 2 8.38281V8.38281Z" stroke="#475569" stroke-width="2" stroke-linecap="round" stroke-linejoin="round"/>
<path d="M2 8.38269V2.99968V2.99973C2.00018 2.62106 2.21424 2.27498 2.55296 2.10571L4.55296 1.10571V1.10571C5.04698 0.858812 5.64762 1.05915 5.89451 1.55318C5.9638 1.69183 5.99991 1.84469 6 1.99968V8.38168" stroke="#475569" stroke-width="2" stroke-linecap="round" stroke-linejoin="round"/>
<path d="M13 10H15V10C16.1046 10 17 10.8954 17 12V18C17 18.5523 16.5523 19 16 19H12V19C11.4477 19 11 18.5523 11 18V18V12V12C11 10.8954 11.8954 10 13 10V10Z" stroke="#475569" stroke-width="2" stroke-linecap="round" stroke-linejoin="round"/>
<path d="M7 13H1" stroke="#475569" stroke-width="2" stroke-linecap="round" stroke-linejoin="round"/>
</g>
<defs>
<clipPath id="clip0_1610_27783">
<rect width="18" height="20" fill="white"/>
</clipPath>
</defs>
</svg>
