<svg width="20" height="20" viewBox="0 0 20 20" fill="none" xmlns="http://www.w3.org/2000/svg">
<g clip-path="url(#clip0_54_66390)">
<path d="M19 10V12C19 12.7956 18.6839 13.5587 18.1213 14.1213C17.5587 14.6839 16.7956 15 16 15H4C3.20435 15 2.44129 14.6839 1.87868 14.1213C1.31607 13.5587 1 12.7956 1 12V4C1 3.20435 1.31607 2.44129 1.87868 1.87868C2.44129 1.31607 3.20435 1 4 1H7" stroke="#475569" stroke-width="1.5" stroke-linecap="round" stroke-linejoin="round"/>
<path d="M12.0234 4.92004V7.24723C12.0234 7.49786 12.0932 7.74355 12.2249 7.95674C12.3567 8.16993 12.5452 8.3422 12.7694 8.45423L13.2914 8.71523C13.6662 8.90253 14.0795 9.00004 14.4984 9.00004C14.9174 9.00004 15.3307 8.90253 15.7054 8.71523L16.2274 8.45423C16.4516 8.3422 16.6402 8.16993 16.772 7.95674C16.9037 7.74355 16.9735 7.49786 16.9734 7.24723V4.92004" stroke="#475569" stroke-width="1.5" stroke-linecap="round" stroke-linejoin="round"/>
<path d="M10.4149 4.11391L13.4998 5.65491C13.8111 5.8102 14.1542 5.89103 14.5021 5.89103C14.85 5.89103 15.1931 5.8102 15.5044 5.65491L18.5863 4.11391C18.7105 4.05199 18.8149 3.95667 18.888 3.83867C18.961 3.72066 18.9997 3.58464 18.9997 3.44587C18.9997 3.3071 18.961 3.17107 18.888 3.05307C18.8149 2.93506 18.7105 2.83975 18.5863 2.77782L15.4984 1.23682C15.1872 1.08108 14.8441 1 14.4961 1C14.1481 1 13.8049 1.08108 13.4938 1.23682L10.4119 2.77782C10.2878 2.84003 10.1836 2.93558 10.1108 3.05375C10.0381 3.17191 9.99969 3.30802 10 3.44679C10.0003 3.58556 10.0393 3.7215 10.1126 3.83934C10.1859 3.95718 10.2905 4.05226 10.4149 4.11391V4.11391Z" stroke="#475569" stroke-width="1.5" stroke-linecap="round" stroke-linejoin="round"/>
<path d="M19 3.44702V5.24702" stroke="#475569" stroke-width="1.5" stroke-linecap="round" stroke-linejoin="round"/>
<path d="M12 15L12.5 19" stroke="#475569" stroke-width="1.5" stroke-linecap="round" stroke-linejoin="round"/>
<path d="M8 15L7.5 19" stroke="#475569" stroke-width="1.5" stroke-linecap="round" stroke-linejoin="round"/>
<path d="M5.19922 19H14.7992" stroke="#475569" stroke-width="1.5" stroke-linecap="round" stroke-linejoin="round"/>
</g>
<defs>
<clipPath id="clip0_54_66390">
<rect width="20" height="20" fill="white"/>
</clipPath>
</defs>
</svg>
