<svg width="21" height="22" viewBox="0 0 21 22" fill="none" xmlns="http://www.w3.org/2000/svg">
<g clip-path="url(#clip0_1610_27797)">
<path d="M11.5121 9.40814V1.76214V1.76214C15.7347 1.71851 19.1931 5.10619 19.2367 9.32873C19.2803 13.5513 15.8927 17.0097 11.6701 17.0533C7.44758 17.0969 3.98916 13.7093 3.94553 9.48673C3.94526 9.46053 3.94513 9.43433 3.94513 9.40813V6.38113C3.94513 5.58971 3.30355 4.94813 2.51213 4.94813V4.94813V4.94813C1.7207 4.94758 1.07868 5.58871 1.07813 6.38013C1.07813 6.38047 1.07812 6.3808 1.07813 6.38113V6.85913" stroke="#475569" stroke-width="2" stroke-linecap="round" stroke-linejoin="round"/>
<path d="M4.73828 9.41016H19.0783" stroke="#475569" stroke-width="2" stroke-linecap="round" stroke-linejoin="round"/>
<path d="M16.0507 19.5742V19.5742C15.9127 19.5753 15.8016 19.6881 15.8027 19.8262C15.8038 19.9643 15.9167 20.0753 16.0547 20.0742C16.192 20.0731 16.3027 19.9615 16.3027 19.8242V19.8242C16.3022 19.6856 16.1894 19.5737 16.0507 19.5742C16.0507 19.5742 16.0507 19.5742 16.0507 19.5742" stroke="#475569" stroke-width="2" stroke-linecap="round" stroke-linejoin="round"/>
<path d="M6.97166 19.5781V19.5781C6.83359 19.5787 6.72211 19.6911 6.72266 19.8291C6.72321 19.9672 6.83559 20.0787 6.97366 20.0781C7.11133 20.0776 7.22265 19.9658 7.22266 19.8281V19.8281C7.22321 19.6906 7.11218 19.5787 6.97466 19.5781C6.97366 19.5781 6.97266 19.5781 6.97165 19.5781" stroke="#475569" stroke-width="2" stroke-linecap="round" stroke-linejoin="round"/>
</g>
<defs>
<clipPath id="clip0_1610_27797">
<rect width="21" height="22" fill="white"/>
</clipPath>
</defs>
</svg>
