<svg width="16" height="16" viewBox="0 0 16 16" fill="none" xmlns="http://www.w3.org/2000/svg">
<g clip-path="url(#clip0_2192_22848)">
<path d="M10 12.6667V12.3333C10 11.7145 9.75417 11.121 9.31658 10.6834C8.879 10.2458 8.28551 10 7.66667 10H4.33333C3.71449 10 3.121 10.2458 2.68342 10.6834C2.24583 11.121 2 11.7145 2 12.3333V12.6667" stroke="#0F172A" stroke-width="1.25" stroke-linecap="round" stroke-linejoin="round"/>
<path d="M6.0013 7.33464C7.28997 7.33464 8.33464 6.28997 8.33464 5.0013C8.33464 3.71264 7.28997 2.66797 6.0013 2.66797C4.71264 2.66797 3.66797 3.71264 3.66797 5.0013C3.66797 6.28997 4.71264 7.33464 6.0013 7.33464Z" stroke="#0F172A" stroke-width="1.25" stroke-linecap="round" stroke-linejoin="round"/>
<path d="M14.6667 12.6667V12.3333C14.6667 11.7145 14.4208 11.121 13.9832 10.6834C13.5457 10.2458 12.9522 10 12.3333 10H12" stroke="#0F172A" stroke-width="1.25" stroke-linecap="round" stroke-linejoin="round"/>
<path d="M10.668 2.66797C11.2868 2.66797 11.8803 2.9138 12.3179 3.35139C12.7555 3.78897 13.0013 4.38246 13.0013 5.0013C13.0013 5.62014 12.7555 6.21363 12.3179 6.65122C11.8803 7.0888 11.2868 7.33464 10.668 7.33464" stroke="#0F172A" stroke-width="1.25" stroke-linecap="round" stroke-linejoin="round"/>
</g>
<defs>
<clipPath id="clip0_2192_22848">
<rect width="16" height="16" fill="white"/>
</clipPath>
</defs>
</svg>
